<svg width="60" height="61" fill="none" xmlns="http://www.w3.org/2000/svg"><circle cx="30" cy="30.716" r="30" fill="#EFF6F1"/><path fill-rule="evenodd" clip-rule="evenodd" d="M39.283 31c0-5.127-4.317-9.284-9.642-9.284C24.317 21.716 20 25.873 20 31c0 4.634 3.525 8.475 8.135 9.172v-6.487h-2.449V31h2.449v-2.045c0-2.327 1.44-3.613 3.642-3.613 1.055 0 2.158.182 2.158.182v2.285H32.72c-1.197 0-1.572.715-1.572 1.45V31h2.674l-.427 2.685h-2.246v6.488c4.61-.697 8.135-4.538 8.135-9.173z" fill="#274C5B"/></svg>