<svg width="60" height="61" fill="none" xmlns="http://www.w3.org/2000/svg"><circle cx="30" cy="30.716" r="30" fill="#EFF6F1"/><path d="M40.66 24.674a8.686 8.686 0 01-2.434.659 4.197 4.197 0 001.865-2.307 8.51 8.51 0 01-2.693 1.011 4.266 4.266 0 00-3.095-1.321c-2.342 0-4.238 1.868-4.238 4.17-.001.32.035.64.11.952a12.082 12.082 0 01-8.738-4.36 4.12 4.12 0 00-.576 2.096 4.16 4.16 0 001.894 3.473 4.197 4.197 0 01-1.928-.52v.051c0 2.023 1.464 3.706 3.4 4.09a4.376 4.376 0 01-1.116.145 4.032 4.032 0 01-.797-.077c.539 1.657 2.106 2.862 3.962 2.897A8.59 8.59 0 0120 37.359a11.996 11.996 0 006.488 1.885c7.806 0 12.07-6.357 12.07-11.871 0-.18-.004-.362-.013-.538a8.54 8.54 0 002.115-2.16z" fill="#274C5B"/></svg>